<svg xmlns="http://www.w3.org/2000/svg" width="579.647" height="618.198" viewBox="0 0 579.647 618.198">
    <g id="programmer-programming" transform="translate(-16.989 -4.259)">
        <path id="Path_80" data-name="Path 80" d="M581.537,292.108c-39.069,58.5-122.464,239.438-101.942,306.578l-299.146.067s-43.221-32.189-85.219-88.132q-11.956-15.908-22.5-32.809a406.09,406.09,0,0,1-21.794-39.571c-19.468-40.526-33.361-87.5-33.93-139.4-1.942-179.7,153.582-346.7,365.166-279.31S620.606,233.6,581.537,292.108Z" transform="translate(0 0)" fill="#fcf5ff"/>
        <path id="Path_81" data-name="Path 81" d="M307.492,442.15a2.087,2.087,0,0,1-1.607-.77L146.361,243.037a2.06,2.06,0,0,1,3.214-2.578L309.1,438.8a2.059,2.059,0,0,1-1.607,3.348Z" transform="translate(86.883 158.663)" fill="#25253d"/>
        <path id="Path_82" data-name="Path 82" d="M95.432,442.15a2.076,2.076,0,0,1-1.607-3.348L253.35,240.459a2.06,2.06,0,0,1,3.214,2.578L97.039,441.38a2.087,2.087,0,0,1-1.607.77Z" transform="translate(51.488 158.663)" fill="#3f345e"/>
        <path id="Path_83" data-name="Path 83" d="M254.962,442.15a2.087,2.087,0,0,1-1.607-.77L93.831,243.037a2.06,2.06,0,0,1,3.214-2.578L256.569,438.8a2.059,2.059,0,0,1-1.607,3.348Z" transform="translate(51.482 158.663)" fill="#3f345e"/>
        <path id="Path_84" data-name="Path 84" d="M143.464,248.306H69.343a5.273,5.273,0,1,1,0-10.546h74.121a5.273,5.273,0,1,1,0,10.546Z" transform="translate(31.729 157.361)" fill="#25253d"/>
        <path id="Path_85" data-name="Path 85" d="M326.3,248.306H114.463a5.273,5.273,0,1,1,0-10.546H326.3Z" transform="translate(62.136 157.361)" fill="#3f345e"/>
        <path id="Path_86" data-name="Path 86" d="M150.337,302.478a5.758,5.758,0,1,1-5.758-5.758A5.758,5.758,0,0,1,150.337,302.478Z" transform="translate(82.104 197.096)" fill="#25253d"/>
        <path id="Path_87" data-name="Path 87" d="M202.857,302.478a5.758,5.758,0,1,1-5.758-5.758A5.758,5.758,0,0,1,202.857,302.478Z" transform="translate(117.498 197.096)" fill="#ffc947"/>
        <path id="Path_88" data-name="Path 88" d="M185.246,171.582H110.589a6.7,6.7,0,0,1-6.679-6.679V109.379a6.7,6.7,0,0,1,6.679-6.679h74.674a6.7,6.7,0,0,1,6.679,6.679V164.9a6.7,6.7,0,0,1-6.7,6.679Z" transform="translate(58.578 66.342)" fill="#e157e3"/>
        <path id="Path_89" data-name="Path 89" d="M157.824,127.788h-2.762a16.638,16.638,0,0,0-1.858-4.252l2.126-2.126a2.071,2.071,0,0,0,0-2.946l-3-3a2.076,2.076,0,0,0-2.946,0l-2.26,2.26a16.843,16.843,0,0,0-4.017-1.624v-3.4a2.075,2.075,0,0,0-2.076-2.076h-4.252a2.075,2.075,0,0,0-2.076,2.076v3.432a16.756,16.756,0,0,0-3.9,1.54l-2.494-2.494a2.076,2.076,0,0,0-2.946,0l-3,3a2.076,2.076,0,0,0,0,2.946l2.31,2.31a16.706,16.706,0,0,0-1.808,3.967h-3.247a2.075,2.075,0,0,0-2.076,2.076v4.252a2.075,2.075,0,0,0,2.076,2.076h2.846a16.425,16.425,0,0,0,1.59,4.453L122.12,142.2a2.076,2.076,0,0,0,0,2.946l3,3a2.071,2.071,0,0,0,2.946,0l1.691-1.691a16.236,16.236,0,0,0,4.587,2.076v2.36a2.075,2.075,0,0,0,2.076,2.076h4.252a2.075,2.075,0,0,0,2.076-2.076v-2.193a16.689,16.689,0,0,0,4.754-1.925l1.624,1.624a2.071,2.071,0,0,0,2.946,0l3-3a2.071,2.071,0,0,0,0-2.946l-1.657-1.657a16.844,16.844,0,0,0,1.825-4.62h2.578a2.075,2.075,0,0,0,2.076-2.076v-4.252a2.025,2.025,0,0,0-2.059-2.059ZM141,142.87a10.713,10.713,0,1,1,7.937-12.495A10.713,10.713,0,0,1,141,142.87Z" transform="translate(67.77 71.686)" fill="#fff"/>
        <path id="Path_90" data-name="Path 90" d="M252.413,148.852H177.739a6.7,6.7,0,0,1-6.679-6.679V86.649a6.7,6.7,0,0,1,6.679-6.679h74.674a6.7,6.7,0,0,1,6.679,6.679v55.524A6.679,6.679,0,0,1,252.413,148.852Z" transform="translate(103.831 51.023)" fill="#25253d"/>
        <path id="Path_91" data-name="Path 91" d="M214.918,117.879a2.035,2.035,0,0,1-1.456-.636l-9.274-9.926a2.31,2.31,0,0,1,0-3.113l9.441-10.094a1.975,1.975,0,0,1,2.913,0,2.312,2.312,0,0,1,0,3.113l-7.985,8.537,7.817,8.37a2.312,2.312,0,0,1,0,3.113,1.97,1.97,0,0,1-1.456.636Zm29.712,0a2.035,2.035,0,0,1-1.456-.636,2.31,2.31,0,0,1,0-3.113l7.834-8.37-7.985-8.537a2.31,2.31,0,0,1,0-3.113,1.975,1.975,0,0,1,2.913,0l9.441,10.094a2.293,2.293,0,0,1,0,3.113l-9.273,9.926a2.009,2.009,0,0,1-1.473.636Zm-19.468,2.728a1.841,1.841,0,0,1-.77-.167,2.243,2.243,0,0,1-1.122-2.862l9.207-24.2a2.006,2.006,0,0,1,2.678-1.205,2.236,2.236,0,0,1,1.122,2.862l-9.207,24.2A2.051,2.051,0,0,1,225.162,120.607Zm109.357,33.378H149.25v-5.691a2.772,2.772,0,0,1,2.779-2.779H331.741a2.772,2.772,0,0,1,2.779,2.779v5.691Z" transform="translate(89.133 59.131)" fill="#fff"/>
        <path id="Path_92" data-name="Path 92" d="M329.347,227.808H154.422a5.172,5.172,0,0,1-5.172-5.172V129.03H334.519v93.606A5.189,5.189,0,0,1,329.347,227.808Z" transform="translate(89.133 84.086)" fill="#734eb1"/>
        <path id="Path_93" data-name="Path 93" d="M262.866,127.026a1.306,1.306,0,1,1-1.306-1.306A1.306,1.306,0,0,1,262.866,127.026Zm-8.956,0a1.306,1.306,0,1,1-1.306-1.306A1.306,1.306,0,0,1,253.91,127.026Zm-8.939,0a1.306,1.306,0,1,1-1.306-1.306A1.306,1.306,0,0,1,244.971,127.026Z" transform="translate(151.882 81.855)" fill="#25253d"/>
        <path id="Path_94" data-name="Path 94" d="M258.58,138.442H155.7a1.791,1.791,0,0,1,0-3.582H258.58a1.791,1.791,0,1,1,0,3.582Zm0,11.4H155.7a1.791,1.791,0,0,1,0-3.582H258.58a1.791,1.791,0,1,1,0,3.582Zm-49.063,11.4h-53.8a1.791,1.791,0,0,1,0-3.582h53.8a1.791,1.791,0,1,1,0,3.582Z" transform="translate(92.274 88.015)" fill="#e157e3"/>
        <path id="Path_95" data-name="Path 95" d="M258.58,165.672H155.7a1.791,1.791,0,1,1,0-3.582H258.58a1.791,1.791,0,1,1,0,3.582Zm-49.063,11.4h-53.8a1.791,1.791,0,0,1,0-3.582h53.8a1.791,1.791,0,1,1,0,3.582Z" transform="translate(92.274 106.366)" fill="#25253d"/>
        <path id="Path_96" data-name="Path 96" d="M209.511,179.292h-53.8a1.791,1.791,0,1,1,0-3.582h53.8a1.791,1.791,0,0,1,0,3.582Z" transform="translate(92.28 115.545)" fill="#e157e3"/>
        <path id="Path_97" data-name="Path 97" d="M232.729,152.062H194.061a1.791,1.791,0,0,1,0-3.582h38.668a1.791,1.791,0,1,1,0,3.582Z" transform="translate(118.125 97.194)" fill="#fff"/>
        <circle id="Ellipse_2" data-name="Ellipse 2" cx="16.12" cy="16.12" r="16.12" transform="translate(367.59 287.351) rotate(-76.66)" fill="#25253d"/>
        <path id="Path_98" data-name="Path 98" d="M244.116,176.613a9.123,9.123,0,1,1-9.123-9.123A9.123,9.123,0,0,1,244.116,176.613Z" transform="translate(140.769 110.005)" fill="#20c3c5"/>
        <path id="Path_99" data-name="Path 99" d="M149.25,182.06v32.591L179.2,184.7" transform="translate(89.133 119.824)" fill="#734eb1"/>
        <path id="Path_100" data-name="Path 100" d="M130.2,206.8h65.718l23.77,45.732H153.97Z" transform="translate(76.295 136.497)" fill="#c193c6"/>
        <path id="Path_101" data-name="Path 101" d="M153.17,248.052l-19.685-37.881a1.188,1.188,0,0,1,1.055-1.741H191.4a1.172,1.172,0,0,1,1.055.636l19.685,37.881a1.188,1.188,0,0,1-1.055,1.741H154.225a1.172,1.172,0,0,1-1.055-.636Z" transform="translate(78.417 137.595)" fill="#fff"/>
        <path id="Path_102" data-name="Path 102" d="M144.4,234.12h53.231v6.11H144.4Z" transform="translate(85.865 154.908)" fill="#e1b1e5"/>
        <path id="Path_103" data-name="Path 103" d="M225.894,234.12H173.367a3.047,3.047,0,0,0,0,6.093h52.528a3.047,3.047,0,0,0,0-6.093Z" transform="translate(103.333 154.908)" fill="#dca5e1"/>
        <path id="Path_104" data-name="Path 104" d="M154.763,252.538l-23.77-45.748-1.188.887a1.947,1.947,0,0,0-.552,2.477l25.511,48.477v-6.093Z" transform="translate(75.502 136.49)" fill="#e1b1e5"/>
        <path id="Path_105" data-name="Path 105" d="M155.19,235.83h5.859v1.021H155.19Zm7.365,0h5.859v1.021h-5.859Zm7.365,0h5.859v1.021H169.92Z" transform="translate(93.136 156.061)" fill="#dca5e1"/>
        <path id="Path_106" data-name="Path 106" d="M263.466,295.178s-54.52,42.451-63.157,53.231c-3.264,4.084-8.939,11.232-14.831,18.564-9.675,12.036-19.936,24.59-21.158,24.891-1.942.486-18.3-11.968-18.8-14.647-.3-1.674,14.6-27.235,27.486-47.79,7.851-12.487,14.948-23.15,17.442-25.46,6.6-6.11,47.138-27.586,47.138-27.586Z" transform="translate(86.618 183.388)" fill="#734eb1"/>
        <path id="Path_107" data-name="Path 107" d="M153.83,374.06s50.937-72.5,76.5-84.7" transform="translate(92.22 192.136)" fill="none" stroke="#000" stroke-linecap="round" stroke-miterlimit="10" stroke-width="0.82" opacity="0.15"/>
        <path id="Path_108" data-name="Path 108" d="M274.238,192.164c-.569,1.322-1.239,2.678-1.975,4.084-3.984,7.616-1.038,15.249-5.591,17.191a4.258,4.258,0,0,1-.921.285c-5.859,1.306-19.367-6.512-19.97-10.412-.586-3.9,4.168-10.6,0-11.4s-6.411,6.193-6.411,6.193c-3.432.352-4.637-5.39-10.261-5.39a9.854,9.854,0,0,0-2.327.3,16.74,16.74,0,0,0-6.445,3.549,18.2,18.2,0,0,0-1.724,1.64,11.129,11.129,0,0,1-4.771-9.391c.4-9.876,4.034-17.091,12.822-18.547.971-10.981,10.01-16.856,22.1-17.225,10.6-.335,12.186,9.19,12.42,11.567-.1-1.774-.586-7.583-3.113-11.567,5.306-.234,9.977,3.549,8.755,15.886,1.222-3.666,5.49-5.993,8.788-3.3-3.047,0-5.976,5.122-5.976,5.122a20.6,20.6,0,0,1,6.009,6.528c2.059,3.482,1.289,8.654-1.406,14.881Z" transform="translate(132.658 100.263)" fill="#382424"/>
        <path id="Path_109" data-name="Path 109" d="M261.453,197.812l-.134,1.808-.469,6.411s-9.759,8.336-15.283,0l-.117-.167c-1.707-2.544-3.264-3.432-4.67-3.6-3.063-.368-5.524,2.611-8.068-.619-7.282-9.24-10.194-19.97-11.132-24.255a9.852,9.852,0,0,1,2.327-.3c5.624,0,6.83,5.742,10.261,5.39,0,0,2.243-7,6.411-6.193s-.586,7.5,0,11.4c.268,1.741,3.1,4.269,6.679,6.394,4.185,2.511,9.391,4.486,12.688,4.118.2-.033.4-.05.586-.1a4.26,4.26,0,0,0,.921-.285Z" transform="translate(137.878 115.889)" fill="#ffad94"/>
        <path id="Path_110" data-name="Path 110" d="M254.71,201.6c-4.4,3-12.454,3.5-12.454,3.5l-6.6-.971s-2.762-4-1.473-6.227a8.239,8.239,0,0,1,1.741-1.758,47.655,47.655,0,0,1,7.566-4.854c3.047-1.573,6.177-2.829,8.437-2.963,5.557-.318,7.181,10.261,2.779,13.274Z" transform="translate(146.144 124.04)" opacity="0.25"/>
        <path id="Path_111" data-name="Path 111" d="M264.313,304.609c-9.809,1.892-30.566-3.884-40.492-8.353-2.929-1.322-4.938-2.528-5.407-3.365-1.908-3.365.017-5.926,4.737-16.589l1.691-3.917c3.214-7.549,3.214-23.653,3.214-37.529-.033-11.885-.1-22.129,1.791-23.954,4.1-3.95,24.54-16.873,24.54-16.873l4.068,21.209s2.31,10.763,4.72,24.824C267.627,265.942,272.531,303.019,264.313,304.609Z" transform="translate(135.252 127.891)" fill="#e157e3"/>
        <path id="Path_112" data-name="Path 112" d="M306.943,274.248c0,.971-9.776,23.753-17.961,27.017s-57.566-.335-57.566-.335L206.993,316.9l5.105,48.092,3.565,33.512.117,1.088c-7.466,4.871-26.281,6.194-28.306,1.992l-.017-.033c-1.958-4.235-31.9-94.409-20.187-110.043,11.717-15.618,86.91-38.416,86.91-38.416a41.157,41.157,0,0,0,6.712,3.365c8.353,3.432,18.982,5.574,27.051,6.83,3.114.485,5.842.837,7.918,1.088,2.628.318,4.218.435,4.218.435s6.863,8.453,6.863,9.441Z" transform="translate(99.451 167.693)" fill="#734eb1"/>
        <path id="Path_113" data-name="Path 113" d="M222.613,372.451H159.121a3.749,3.749,0,0,1,1.071-3.415c2.578-3.1,9.022-6.21,15.249-8.888,5.909-2.544,11.584-4.737,13.475-6.244,4.486-3.549,2.41-10.445,2.293-10.88.686,1.406,3.281,2.21,6.7,2.444,6.729.485,16.656-1.189,21.61-4.419l-.117-1.088c1.892,3.616,2.779,21.493,3.08,29.093l.134,3.4Z" transform="translate(95.716 226.236)" fill="#25253d"/>
        <path id="Path_114" data-name="Path 114" d="M197.906,344.234c-.184,3.03-.636,7.934-1.507,9.24-1.306,1.959-15.3,8.788-17.241,8.135a11.767,11.767,0,0,1-3.716-2.7c5.909-2.544,11.584-4.737,13.475-6.244,4.486-3.549,2.41-10.445,2.293-10.88.686,1.423,3.264,2.21,6.7,2.444Zm24.707,26.984H159.121a3.749,3.749,0,0,1,1.071-3.415h62.3Z" transform="translate(95.716 227.469)" fill="#3f345e"/>
        <path id="Path_115" data-name="Path 115" d="M178.08,351.3s-4.821,12.722-9.006,19.434c-1.657,2.678-3.231,4.419-4.335,4-3.9-1.473-43.137-34.834-39.387-37.261a6.313,6.313,0,0,1,2.528-.736c3.415-.435,9.073.033,14.3.569,4.486.469,8.671.971,10.847.971,5.541,0,6.26-1.624,6.26-1.624.117.636,1.172,1.858,2.712,3.348,4.838,4.6,14.6,11.667,16.086,11.3Z" transform="translate(72.858 223.95)" fill="#25253d"/>
        <path id="Path_116" data-name="Path 116" d="M161.994,339.961c-8.319,5.507-16.99,2.193-18.7.937-1.255-.921-1.255-2.628-1.122-3.616,4.486.469,8.671.971,10.847.971,5.541,0,6.26-1.624,6.26-1.624.117.619,1.155,1.841,2.712,3.331Zm7.081,30.733c-1.657,2.678-3.231,4.419-4.335,4-3.9-1.473-43.137-34.834-39.387-37.261a6.314,6.314,0,0,1,2.528-.737Z" transform="translate(72.858 223.992)" fill="#3f345e"/>
        <path id="Path_117" data-name="Path 117" d="M259.217,242.218c-3.063,4.269-8.57,10.8-13.09,10.144l-.569-.1c-8.637-1.523-59.391-14.245-61.784-14.73-2.444-.485-19.518-.636-18.547-2.444.971-1.791,10.747-7.482,13.341-7.349,2.611.134,12.872,3.113,23.117,2.779,10.261-.318,37.111,0,37.111,0l1.306-2.243,1.925-3.314C241.49,234.9,253.475,243.022,259.217,242.218Z" transform="translate(99.873 148.735)" fill="#ffad94"/>
        <path id="Path_118" data-name="Path 118" d="M248.853,257.41s-2.343,12.454,6.779,16.605m-11.567-6.578s-60.295,25.711-63.19,33.7c-2.9,7.968,15.333,94.459,15.333,94.459" transform="translate(110.236 170.604)" fill="none" stroke="#000" stroke-linecap="round" stroke-miterlimit="10" stroke-width="0.82" opacity="0.15"/>
        <path id="Path_119" data-name="Path 119" d="M291.956,270.144c0,.971-9.776,23.753-17.961,27.017s-57.566-.335-57.566-.335L192.006,312.8l5.105,48.092S186.8,305.966,186.8,302.367c0-3.063,68.2-22.682,86.173-43.187,7.047,1.1,12.136,1.523,12.136,1.523s6.846,8.453,6.846,9.441Z" transform="translate(114.439 171.797)" opacity="0.15"/>
        <path id="Path_120" data-name="Path 120" d="M236.792,243.229c-4.235,5.993-11.065,13.626-15.852,20.522l1.691-3.917c3.214-7.549,3.214-23.652,3.214-37.529l14.613-9.675c0,.017,3.164,20.924-3.666,30.6Z" transform="translate(137.447 140.426)" opacity="0.25"/>
        <path id="Path_121" data-name="Path 121" d="M230.956,254.479c-.636.569-1.272,1.155-1.925,1.691a3.538,3.538,0,0,1-.753.167c-5.742.8-17.727-7.3-17.191-17.241a14.355,14.355,0,0,1,1.59-4.151c4.9-9.893,19.669-31.9,22.38-30.9,0,0,9.474,1.473,12.052,14.412C249.52,230.609,240.833,245.339,230.956,254.479Z" transform="translate(130.795 134.617)" fill="#c648cc"/>
        <path id="Path_122" data-name="Path 122" d="M265.341,308.979c-2.076-.251-4.8-.6-7.918-1.088-8.085-1.255-18.7-3.415-27.051-6.83,7.365-.268,23.134-5.105,25.042-41.212a178.777,178.777,0,0,0,3.967,20.924,282.8,282.8,0,0,1,5.959,28.206ZM261.457,189.9a24.534,24.534,0,0,0-1.791,2.343,47.661,47.661,0,0,0-7.566,4.854,5.472,5.472,0,0,0-3.432-2.009l6.495-8.185a34.926,34.926,0,0,0,6.294,3ZM229.1,267.867c-3.063,4.268-8.57,10.8-13.09,10.144l-.569-.1c-5.591-8.085-5.792-18.681-5.474-23.971l1.925-3.314c-.519,9.926,11.466,18.045,17.208,17.241Z" transform="translate(129.989 123.086)" opacity="0.25"/>
        <path id="Path_123" data-name="Path 123" d="M271.613,179.535c-.569,1.322-1.239,2.678-1.975,4.084-1.958,3.733-2.226,7.466-2.561,10.546a21.159,21.159,0,0,0-1.992-1.373,35.94,35.94,0,0,0-8.922,7.282l-.017.017c-5.976-2.143-12.571-6.712-12.973-9.407-.586-3.9,4.168-10.6,0-11.4s-6.411,6.193-6.411,6.193c-3.432.352-4.637-5.39-10.261-5.39a9.852,9.852,0,0,0-2.327.3,16.739,16.739,0,0,0-6.445,3.549s6.327-8.889,16.27-7.1c0,0-1.456-2.762-8.135-2.444,13.994-4.57,22.949-2.762,27.268,2.277,3.515,4.135,11.768,9.24,18.48,2.862Z" transform="translate(135.283 112.891)" opacity="0.25"/>
        <path id="Path_124" data-name="Path 124" d="M286.6,366.8H237.75S276.5,355.4,276.5,278.569l-.017-2.929c-.4-51.356-11.366-79.662-24.891-87.747a58.6,58.6,0,0,1,17.308-6.562,93.191,93.191,0,0,1,10.78-1.741c33.445-3.415,60.161,9.692,63.341,24.54C346.187,218.978,326.635,366.8,286.6,366.8Z" transform="translate(148.775 117.791)" fill="#e1b1e5"/>
        <path id="Path_125" data-name="Path 125" d="M308.742,275.013c0,76.833-38.751,88.232-38.751,88.232H189.91l3.331-2.377,21.091-13.592,42.317-2.929c2.276-9.441,8.47-9.759,17.911-10.747,5.49-.569,6.026-9.843,4.352-22.1a280.757,280.757,0,0,0-6.076-29.009,175.358,175.358,0,0,1-3.967-20.924,190.694,190.694,0,0,1,2.41-62.6c.184-.971.4-1.908.6-2.8l.017-.1a19.177,19.177,0,0,1,3-4.453l.017-.017a35.569,35.569,0,0,1,8.922-7.282,21.161,21.161,0,0,1,1.992,1.373c12.588,9.592,22.514,37.58,22.9,86.374l.017,2.946Z" transform="translate(116.535 121.347)" fill="#c193c6"/>
        <path id="Path_126" data-name="Path 126" d="M275.716,405.3h-57.65a2.076,2.076,0,0,1-1.272-3.716l14.429-11.282a26.5,26.5,0,0,0,10.144-20.824V291.21h11.065v78.273a26.4,26.4,0,0,0,10.161,20.824L277,401.588A2.086,2.086,0,0,1,275.716,405.3Z" transform="translate(134.11 193.382)" fill="#e1b1e5"/>
        <g id="Group_14" data-name="Group 14" transform="translate(423.134 300.344)" opacity="0.25">
            <path id="Path_127" data-name="Path 127" d="M277.93,181.14s.418,1.071,1.1,3.231" transform="translate(-247.281 -181.14)" fill="none" stroke="#000" stroke-linecap="round" stroke-miterlimit="10" stroke-width="0.82"/>
            <path id="Path_128" data-name="Path 128" d="M291.318,187.05a269.155,269.155,0,0,1,6.528,34.366c5.239,40.425-.084,97.188-35.236,133.127" transform="translate(-257.605 -177.157)" fill="none" stroke="#000" stroke-linecap="round" stroke-miterlimit="10" stroke-width="0.82" stroke-dasharray="4.153 4.153"/>
            <path id="Path_129" data-name="Path 129" d="M262.131,288.58c-.82.787-1.657,1.557-2.511,2.327" transform="translate(-259.62 -108.734)" fill="none" stroke="#000" stroke-linecap="round" stroke-miterlimit="10" stroke-width="0.82"/>
        </g>
        <path id="Path_130" data-name="Path 130" d="M269.99,341.222V362.6a77,77,0,0,1-11.065,4.654v-26.03Zm15.3-33.211c-2.611,8.135-18.865,6.679-20.84,12.705-4.185,12.772-6.512,7.148-22.6,8.788-9.207.937-15.885,6.83-19.92,11.734H189.91l3.331-2.377,21.091-13.592,42.317-2.929c2.276-9.441,8.47-9.759,17.911-10.747,5.49-.569,6.026-9.843,4.352-22.1a280.752,280.752,0,0,0-6.076-29.009,175.365,175.365,0,0,1-3.967-20.924A186.207,186.207,0,0,1,267.346,217c6.26,32.641,19.886,84.985,17.944,91.011Z" transform="translate(116.535 143.371)" opacity="0.15"/>
        <path id="Path_131" data-name="Path 131" d="M276.495,277.648l-.017-2.929c-.4-51.356-11.366-79.662-24.891-87.747a58.6,58.6,0,0,1,17.308-6.562c-2.226,3.214-4.57,8.052-3.465,13.224,1.958,9.14,24.1,44.292,15.634,100.619-6.11,40.643-4.084,61.784,2.31,71.627H237.76c-.017,0,38.735-11.4,38.735-88.232Z" transform="translate(148.782 118.712)" opacity="0.15"/>
        <path id="Path_132" data-name="Path 132" d="M206.833,123.939H132.159a6.7,6.7,0,0,1-6.679-6.679V61.719a6.7,6.7,0,0,1,6.679-6.679h74.674a6.7,6.7,0,0,1,6.679,6.679v55.524A6.7,6.7,0,0,1,206.833,123.939Z" transform="translate(73.114 34.223)" fill="#734eb1"/>
        <path id="Path_133" data-name="Path 133" d="M138.754,70.031v7.415a1.079,1.079,0,0,0,1.071,1.071h4.1A1.079,1.079,0,0,0,145,77.447V70.031a1.079,1.079,0,0,1,1.071-1.071h.4a1.079,1.079,0,0,1,1.071,1.071V90.185a1.079,1.079,0,0,1-1.071,1.071h-.4A1.071,1.071,0,0,1,145,90.185V81.916a1.071,1.071,0,0,0-1.071-1.071h-4.1a1.071,1.071,0,0,0-1.071,1.071v8.269a1.079,1.079,0,0,1-1.071,1.071h-.4a1.071,1.071,0,0,1-1.071-1.071V70.031a1.079,1.079,0,0,1,1.071-1.071h.4A1.079,1.079,0,0,1,138.754,70.031Zm14.3,1.205h-1.925a1.071,1.071,0,0,1-1.071-1.071v-.134a1.079,1.079,0,0,1,1.071-1.071h8.537a1.079,1.079,0,0,1,1.071,1.071v.134a1.079,1.079,0,0,1-1.071,1.071h-1.925a1.071,1.071,0,0,0-1.071,1.071V90.185a1.079,1.079,0,0,1-1.071,1.071h-.4a1.071,1.071,0,0,1-1.071-1.071V72.308a1.055,1.055,0,0,0-1.071-1.071ZM176.6,81.665c-.167-2.946-.335-6.227-.234-8.738h-.134c-.5,2.477-1.088,5.122-1.791,7.75L171.7,91.139h-1.624l-2.611-10.027c-.737-2.846-1.389-5.591-1.825-8.169h-.1c0,2.611-.134,5.725-.268,8.905l-.385,8.4a1.088,1.088,0,0,1-1.071,1.021H163.7a1.071,1.071,0,0,1-1.071-1.138l1.189-20.154a1.066,1.066,0,0,1,1.071-1h.9a1.075,1.075,0,0,1,1.038.8l2.41,9.391c.753,2.946,1.322,5.122,1.791,7.683h.1c.435-2.544.921-4.67,1.657-7.683L175.1,69.8a1.071,1.071,0,0,1,1.038-.82h.988A1.081,1.081,0,0,1,178.192,70l1.188,20.12a1.071,1.071,0,0,1-1.071,1.138h-.218a1.071,1.071,0,0,1-1.071-1.021l-.419-8.57Zm7.382-12.705h.4a1.079,1.079,0,0,1,1.071,1.071V88.026a1.079,1.079,0,0,0,1.071,1.071h4.135a1.071,1.071,0,1,1,0,2.143h-6.679a1.071,1.071,0,0,1-1.071-1.071V70.031a1.079,1.079,0,0,1,1.071-1.071Z" transform="translate(80.345 43.604)" fill="#fff"/>
        <path id="Path_134" data-name="Path 134" d="M493.028,383.14H76.875a11.885,11.885,0,1,1,0-23.77H493.028a11.885,11.885,0,0,1,0,23.77Z" transform="translate(32.349 239.317)" fill="#fcf5ff"/>
    </g>
</svg>
